<mxfile host="app.diagrams.net" modified="2024-03-01T10:15:32.450Z" agent="Mozilla/5.0 (Windows NT 10.0; Win64; x64) AppleWebKit/537.36 (KHTML, like Gecko) Chrome/122.0.0.0 Safari/537.36 Edg/122.0.0.0" etag="yqOWi11JtHJHHN8_NHGX" version="23.1.2" type="device">
  <diagram name="Page-1" id="-nqjmpnLXC_N5ZKjvGOK">
    <mxGraphModel dx="1042" dy="535" grid="1" gridSize="10" guides="1" tooltips="1" connect="1" arrows="1" fold="1" page="1" pageScale="1" pageWidth="827" pageHeight="1169" math="0" shadow="0">
      <root>
        <mxCell id="0" />
        <mxCell id="1" parent="0" />
        <mxCell id="52yx5HIT49tvpJhHmBz_-3" style="edgeStyle=orthogonalEdgeStyle;rounded=0;orthogonalLoop=1;jettySize=auto;html=1;curved=1;" edge="1" parent="1" source="52yx5HIT49tvpJhHmBz_-1" target="52yx5HIT49tvpJhHmBz_-2">
          <mxGeometry relative="1" as="geometry" />
        </mxCell>
        <mxCell id="52yx5HIT49tvpJhHmBz_-5" style="edgeStyle=orthogonalEdgeStyle;rounded=0;orthogonalLoop=1;jettySize=auto;html=1;curved=1;" edge="1" parent="1" source="52yx5HIT49tvpJhHmBz_-1" target="52yx5HIT49tvpJhHmBz_-4">
          <mxGeometry relative="1" as="geometry" />
        </mxCell>
        <mxCell id="52yx5HIT49tvpJhHmBz_-1" value="App.jsx" style="rounded=1;whiteSpace=wrap;html=1;" vertex="1" parent="1">
          <mxGeometry x="354" y="160" width="120" height="60" as="geometry" />
        </mxCell>
        <mxCell id="52yx5HIT49tvpJhHmBz_-2" value="AddContact" style="rounded=1;whiteSpace=wrap;html=1;" vertex="1" parent="1">
          <mxGeometry x="240" y="290" width="120" height="60" as="geometry" />
        </mxCell>
        <mxCell id="52yx5HIT49tvpJhHmBz_-10" style="edgeStyle=orthogonalEdgeStyle;rounded=0;orthogonalLoop=1;jettySize=auto;html=1;curved=1;" edge="1" parent="1" source="52yx5HIT49tvpJhHmBz_-4" target="52yx5HIT49tvpJhHmBz_-8">
          <mxGeometry relative="1" as="geometry" />
        </mxCell>
        <mxCell id="52yx5HIT49tvpJhHmBz_-13" style="edgeStyle=orthogonalEdgeStyle;rounded=0;orthogonalLoop=1;jettySize=auto;html=1;" edge="1" parent="1" source="52yx5HIT49tvpJhHmBz_-4" target="52yx5HIT49tvpJhHmBz_-11">
          <mxGeometry relative="1" as="geometry" />
        </mxCell>
        <mxCell id="52yx5HIT49tvpJhHmBz_-14" style="edgeStyle=orthogonalEdgeStyle;rounded=0;orthogonalLoop=1;jettySize=auto;html=1;curved=1;" edge="1" parent="1" source="52yx5HIT49tvpJhHmBz_-4" target="52yx5HIT49tvpJhHmBz_-12">
          <mxGeometry relative="1" as="geometry" />
        </mxCell>
        <mxCell id="52yx5HIT49tvpJhHmBz_-4" value="ContactList" style="rounded=1;whiteSpace=wrap;html=1;" vertex="1" parent="1">
          <mxGeometry x="450" y="290" width="120" height="60" as="geometry" />
        </mxCell>
        <mxCell id="52yx5HIT49tvpJhHmBz_-8" value="ContactItem" style="rounded=1;whiteSpace=wrap;html=1;" vertex="1" parent="1">
          <mxGeometry x="310" y="420" width="120" height="60" as="geometry" />
        </mxCell>
        <mxCell id="52yx5HIT49tvpJhHmBz_-11" value="ContactItem" style="rounded=1;whiteSpace=wrap;html=1;" vertex="1" parent="1">
          <mxGeometry x="450" y="420" width="120" height="60" as="geometry" />
        </mxCell>
        <mxCell id="52yx5HIT49tvpJhHmBz_-12" value="ContactItem" style="rounded=1;whiteSpace=wrap;html=1;" vertex="1" parent="1">
          <mxGeometry x="590" y="420" width="120" height="60" as="geometry" />
        </mxCell>
      </root>
    </mxGraphModel>
  </diagram>
</mxfile>
